<svg id="Component_2_1" data-name="Component 2 – 1" xmlns="http://www.w3.org/2000/svg" width="52.599" height="58.742" viewBox="0 0 52.599 58.742">
  <path id="Path_491" data-name="Path 491" d="M1115.97,118.1a17.773,17.773,0,0,1,2.44,5.58,16.785,16.785,0,0,1,.52,4.84,17.9,17.9,0,0,1-.62,3.73,14.3,14.3,0,0,1-2.76,5.38c-3.92,4.75-9.7,5.28-11,5.37h-20.29a18.411,18.411,0,0,1-17.35-17.85l-.56-28.92a10.992,10.992,0,0,1,.87-4.56,13.47,13.47,0,0,1,4.87-5.68c5.99-3.76,13.29-.26,13.73-.04a9.608,9.608,0,0,0-4.26,2.1,9.927,9.927,0,0,0-2.71,3.88,10.213,10.213,0,0,0-.67,3.21c-.16,2.99-.08,13.65.31,28.14.16,2.15.81,6.84,4.12,8.68a6.9,6.9,0,0,0,3.85.73c4.71-.26,11.73-.32,21.01-.3a8.065,8.065,0,0,0-.24-5.89,8.255,8.255,0,0,0-7.25-4.6h-10.63V111.69l14.2.02C1104.56,111.8,1112.27,112.69,1115.97,118.1Z" transform="translate(-1066.348 -84.258)" fill="#324068"/>
  <path id="Path_492" data-name="Path 492" d="M1089.37,109.65q6.75-.06,13.49-.13a27.587,27.587,0,0,0-.55-7.46,21.815,21.815,0,0,0-4-9.25,12.619,12.619,0,0,0-2-2.21c-3.13-2.63-8.91-4.37-12.77-1.52a9.009,9.009,0,0,0-3.24,5.66,10.731,10.731,0,0,1,5.66,3.28,12.03,12.03,0,0,1,2.28,4.35A21.153,21.153,0,0,1,1089.37,109.65Z" transform="translate(-1066.348 -84.258)" fill="#eca627"/>
</svg>
